<svg xmlns="http://www.w3.org/2000/svg" viewBox="0 0 800 800" fill="currentColor">
  <g transform="translate(400,400)">
    <!-- Gear/Cog in center -->
    <path d="M 0,-120 L 30,-90 L 30,-60 L 60,-60 L 90,-30 L 120,0 L 90,30 L 60,60 L 30,60 L 30,90 L 0,120 L -30,90 L -60,90 L -60,60 L -90,30 L -120,0 L -90,-30 L -60,-60 L -30,-60 L -30,-90 Z M 0,-50 A 50,50 0 1,1 0,50 A 50,50 0 1,1 0,-50 Z" fill="currentColor"/>
    
    <!-- Circular arrows around gear -->
    <!-- Top right arrow -->
    <path d="M 150,-150 Q 200,-200 250,-150 L 230,-130 L 270,-110 L 240,-80 L 220,-100 Q 180,-140 150,-150 Z" fill="currentColor"/>
    
    <!-- Bottom right arrow -->
    <path d="M 250,150 Q 200,200 150,150 L 170,130 L 130,110 L 160,80 L 180,100 Q 220,140 250,150 Z" fill="currentColor"/>
    
    <!-- Bottom left arrow -->
    <path d="M -150,150 Q -200,200 -250,150 L -230,130 L -270,110 L -240,80 L -220,100 Q -180,140 -150,150 Z" fill="currentColor"/>
    
    <!-- Top left arrow -->
    <path d="M -250,-150 Q -200,-200 -150,-150 L -170,-130 L -130,-110 L -160,-80 L -180,-100 Q -220,-140 -250,-150 Z" fill="currentColor"/>
  </g>
</svg>
